<?xml version="1.0" encoding="UTF-8" standalone="no"?>
<!-- Created with Inkscape (http://www.inkscape.org/) -->

<svg
   width="591.20007"
   height="201.89285"
   viewBox="0 0 156.42169 53.417483"
   version="1.1"
   id="svg1"
   xmlns="http://www.w3.org/2000/svg"
   xmlns:svg="http://www.w3.org/2000/svg">
  <defs
     id="defs1" />
  <g
     id="layer1"
     transform="translate(-2.4870752,-1.0725066)">
    <g
       id="g1"
       transform="translate(1.1746681,-0.02919989)">
      <path
         style="font-weight:bold;font-size:57.9246px;font-family:'Hoefler Text';-inkscape-font-specification:'Hoefler Text';fill:#ffffff;stroke-width:16.9698;stroke-linecap:round"
         d="m 1.3124071,15.293233 c 0,-2.934846 0.772328,-5.5124906 2.3169839,-7.7329338 1.544656,-2.2204429 3.687866,-4.1223006 6.42963,-5.705573 0.115849,-0.077233 0.308931,-0.00965 0.579246,0.2027361 0.270315,0.2123902 0.463397,0.3958181 0.579246,0.5502837 0.115849,0.1544656 0.241353,0.3958181 0.37651,0.7240575 0.135157,0.3282394 0.144811,0.5116673 0.02896,0.5502837 C 10.503109,4.5771824 9.4218509,5.5329383 8.3792081,6.7493548 7.3365654,7.9657714 6.815244,9.3463078 6.815244,10.890964 c 0,0.463397 0.028962,0.791636 0.086887,0.984718 0.057925,0.193082 0.1641198,0.289623 0.3185853,0.289623 0.1158492,0 0.2413525,-0.02896 0.3765099,-0.08689 0.1351573,-0.05793 0.299277,-0.08689 0.492359,-0.08689 1.1198756,0 2.1045938,0.395818 2.9541548,1.187454 0.849561,0.791637 1.274341,2.037016 1.274341,3.736137 0,1.428807 -0.492359,2.73211 -1.477077,3.90991 -0.9847184,1.177801 -2.2494056,1.766701 -3.7940615,1.766701 -1.737738,0 -3.1279284,-0.695095 -4.1705711,-2.085286 C 1.8337285,19.116254 1.3124071,17.378518 1.3124071,15.293233 Z M 43.017984,40.084961 c 0,0.231699 -0.04827,0.482705 -0.144811,0.75302 -0.09654,0.270315 -0.202737,0.405472 -0.318586,0.405472 -1.119875,0.115849 -2.818997,0.502013 -5.097364,1.158492 -2.278368,0.656479 -3.996798,1.235725 -5.15529,1.737738 -0.115849,0.03862 -0.308931,0.106199 -0.579246,0.202736 -0.270315,0.09654 -0.540629,0.144812 -0.810944,0.144812 -0.308931,0 -0.550284,-0.08689 -0.724058,-0.260661 -0.173773,-0.173774 -0.26066,-0.337894 -0.26066,-0.492359 l -0.173774,-3.5334 c -0.733711,1.235725 -1.737738,2.220443 -3.012079,2.954154 -1.274341,0.733711 -2.799689,1.100567 -4.576043,1.100567 -3.938873,0 -7.047494,-1.293649 -9.325861,-3.880948 -2.278367,-2.587299 -3.4175512,-5.79246 -3.4175512,-9.615483 0,-4.170571 1.2550332,-7.578469 3.7650992,-10.223692 2.510066,-2.645223 5.966234,-3.967835 10.368503,-3.967835 1.428807,0 2.625915,0.222044 3.591325,0.666133 0.96541,0.444089 1.757046,0.91714 2.374909,1.419153 v -6.603404 c 0,-1.50604 -0.289623,-2.5100663 -0.868869,-3.0120795 -0.579246,-0.5020132 -1.602581,-0.8302526 -3.070004,-0.9847182 -0.115849,0 -0.222044,-0.1448115 -0.318585,-0.4344345 -0.09654,-0.289623 -0.144812,-0.5309755 -0.144812,-0.7240575 0,-0.193082 0.04827,-0.4440886 0.144812,-0.7530198 0.09654,-0.3089312 0.202736,-0.4633968 0.318585,-0.4633968 1.776354,-0.3861639 3.880948,-1.0329886 6.313781,-1.940474 2.432833,-0.9074854 4.209188,-1.6315429 5.329063,-2.1721725 0.115849,-0.077233 0.308931,-0.1737738 0.579246,-0.289623 0.270315,-0.1158491 0.502013,-0.1737737 0.695095,-0.1737737 0.463397,0 0.801291,0.077233 1.013681,0.2316983 0.21239,0.1544656 0.318585,0.3282394 0.318585,0.5213214 -0.115849,1.4674232 -0.222044,3.1665448 -0.318585,5.0973647 -0.09654,1.93082 -0.144812,3.4947841 -0.144812,4.6918921 v 23.575312 c 0,1.390191 0.21239,2.30733 0.637171,2.751419 0.42478,0.444088 1.274341,0.743365 2.548682,0.897831 0.115849,0 0.222045,0.154466 0.318586,0.463397 0.09654,0.308931 0.144811,0.559937 0.144811,0.753019 z M 29.521553,36.493636 v -12.97511 c 0,-1.042643 -0.395818,-1.921166 -1.187455,-2.635569 -0.791636,-0.714403 -1.940474,-1.071605 -3.446513,-1.071605 -1.351574,0 -2.51972,0.637171 -3.504439,1.911512 -0.984718,1.274341 -1.477077,4.28642 -1.477077,9.036237 0,3.514092 0.453743,5.975887 1.361228,7.385386 0.907485,1.409499 2.017707,2.114248 3.330665,2.114248 1.004026,0 1.930819,-0.308931 2.78038,-0.926793 0.849561,-0.617863 1.563965,-1.563965 2.143211,-2.838306 z m 43.26966,-5.908309 c 0,3.668558 -1.303304,6.864065 -3.909911,9.586521 -2.606607,2.722456 -6.419976,4.083684 -11.440108,4.083684 -4.981515,0 -8.794885,-1.351574 -11.440108,-4.054721 -2.645223,-2.703148 -3.967835,-5.908309 -3.967835,-9.615484 0,-3.668558 1.312958,-6.92199 3.938873,-9.760295 2.625915,-2.838305 6.448938,-4.257458 11.46907,-4.257458 4.904283,0 8.68869,1.399845 11.353222,4.199534 2.664531,2.799689 3.996797,6.072428 3.996797,9.818219 z m -10.542277,-0.05792 c 0,-3.707175 -0.308931,-6.49721 -0.926794,-8.370105 -0.617862,-1.872895 -1.911511,-2.809343 -3.880948,-2.809343 -1.969436,0 -3.272739,0.955756 -3.90991,2.867268 -0.637171,1.911511 -0.955756,4.682238 -0.955756,8.31218 0,3.745791 0.318585,6.506863 0.955756,8.283217 0.637171,1.776355 1.940474,2.664532 3.90991,2.664532 1.93082,0 3.214815,-0.897831 3.851986,-2.693494 0.637171,-1.795663 0.955756,-4.547081 0.955756,-8.254255 z m 33.596277,-10.77398 c 0,0.424781 -0.06758,0.878523 -0.202736,1.361228 -0.135157,0.482705 -0.318585,0.724058 -0.550284,0.724058 l -8.630765,-0.231699 v 15.002471 c 0,1.081259 0.222044,1.88255 0.666133,2.403871 0.444089,0.521321 1.206763,0.781982 2.288022,0.781982 0.849561,0 1.650851,-0.222044 2.403871,-0.666133 0.753019,-0.444088 1.399844,-0.994372 1.940474,-1.650851 0.154465,-0.231698 0.347547,-0.308931 0.579246,-0.231698 0.231698,0.07723 0.444088,0.21239 0.63717,0.405472 0.154466,0.193082 0.299278,0.434435 0.434435,0.724058 0.135157,0.289623 0.202736,0.530975 0.202736,0.724057 v 0.231699 c 0,0.07723 -0.03862,0.135157 -0.115849,0.173773 -0.810945,1.042643 -2.04667,2.037016 -3.707175,2.983117 -1.660505,0.946102 -3.610633,1.419153 -5.850384,1.419153 -3.166545,0 -5.560761,-0.839907 -7.18265,-2.51972 -1.621889,-1.679813 -2.413526,-4.411924 -2.374909,-8.196331 L 76.498397,22.30211 c 0,-0.231699 -0.05792,-0.424781 -0.173774,-0.579246 -0.115849,-0.154466 -0.289622,-0.231699 -0.521321,-0.231699 h -3.591325 c -0.154466,0 -0.289623,-0.173774 -0.405472,-0.521321 -0.115849,-0.347548 -0.173774,-0.598555 -0.173774,-0.75302 0,-0.154465 0.05792,-0.395818 0.173774,-0.724057 0.115849,-0.32824 0.231698,-0.530976 0.347547,-0.608209 2.162519,-1.158492 4.334691,-2.51972 6.516518,-4.083684 2.181826,-1.563964 4.025759,-3.118274 5.531799,-4.66293 0.07723,-0.115849 0.26066,-0.2220444 0.550283,-0.3185854 0.289623,-0.096541 0.530976,-0.1448115 0.724058,-0.1448115 0.270315,0 0.550284,0.048271 0.839907,0.1448115 0.289623,0.096541 0.434434,0.2027364 0.434434,0.3185854 l -0.231698,7.588122 h 8.57284 c 0.231699,0 0.415127,0.251007 0.550284,0.75302 0.135157,0.502013 0.202736,0.926794 0.202736,1.274341 z m 26.529317,8.051519 c 0,0.270315 -0.0965,0.482706 -0.28962,0.637171 -0.19308,0.154465 -0.46339,0.231698 -0.81094,0.231698 h -15.98719 c -0.0386,0.270315 -0.0579,0.627517 -0.0579,1.071606 v 1.245378 c 0,3.243778 0.53098,5.502837 1.59293,6.777178 1.06195,1.274341 2.59695,1.911512 4.605,1.911512 1.39019,0 2.95416,-0.347548 4.6919,-1.042643 1.73773,-0.695095 2.99277,-1.563964 3.7651,-2.606607 0.0386,-0.07723 0.15445,-0.04827 0.34754,0.08689 0.19309,0.135157 0.36686,0.260661 0.52133,0.37651 0.19308,0.193082 0.3572,0.395818 0.49235,0.608209 0.13516,0.21239 0.20274,0.415126 0.20274,0.608208 0,0.07723 -0.01,0.154465 -0.029,0.231698 -0.0193,0.07723 -0.0676,0.154466 -0.14481,0.231699 -0.96541,1.39019 -2.39422,2.741764 -4.28642,4.054722 -1.89221,1.312957 -4.42158,1.969436 -7.58813,1.969436 -4.13195,0 -7.60743,-1.332266 -10.426424,-3.996797 -2.818997,-2.664532 -4.228496,-5.811769 -4.228496,-9.44171 0,-4.093338 1.34192,-7.481927 4.02576,-10.165767 2.68384,-2.68384 6.22689,-4.02576 10.62916,-4.02576 4.01611,0 7.18265,1.081259 9.49964,3.243778 2.31698,2.162518 3.47547,4.827049 3.47547,7.993594 z m -9.61548,-4.344344 c 0,-1.158492 -0.26066,-2.14321 -0.78198,-2.954155 -0.52132,-0.810945 -1.3033,-1.216417 -2.34595,-1.216417 -1.27434,0 -2.22044,0.617863 -2.8383,1.853588 -0.61787,1.235725 -1.02334,2.857613 -1.21642,4.865666 l 4.74982,-0.115849 c 0.84956,-0.03862 1.46742,-0.20274 1.85358,-0.492359 0.38617,-0.289623 0.57925,-0.936448 0.57925,-1.940474 z m 26.76119,3.823023 c 1.62189,0.695095 3.15689,1.612235 4.605,2.751418 1.44811,1.139184 2.17217,2.732111 2.17217,4.77878 0,2.741764 -1.09091,4.981515 -3.27274,6.719253 -2.18183,1.737738 -5.01048,2.606607 -8.48595,2.606607 -2.47145,0 -4.2478,-0.270315 -5.32906,-0.810944 -1.08126,-0.540629 -2.62592,-0.810944 -4.63397,-0.810944 -0.11585,-0.96541 -0.27031,-2.345946 -0.4634,-4.141609 -0.19308,-1.795663 -0.36685,-3.079658 -0.52132,-3.851986 -0.0386,-0.115849 0.10621,-0.222044 0.43444,-0.318585 0.32823,-0.09654 0.58889,-0.144812 0.78198,-0.144812 0.27031,0 0.55028,0.04827 0.8399,0.144812 0.28963,0.09654 0.45375,0.202736 0.49236,0.318585 0.81095,2.046669 1.95013,3.69752 3.41755,4.952553 1.46743,1.255033 2.95416,1.88255 4.4602,1.88255 1.15849,0 2.02736,-0.308931 2.60661,-0.926794 0.57924,-0.617863 0.86886,-1.467423 0.86886,-2.548682 0,-1.274341 -0.73371,-2.268714 -2.20113,-2.983117 -1.46742,-0.714403 -2.95415,-1.419153 -4.46019,-2.114248 -1.66051,-0.733711 -3.19551,-1.699121 -4.60501,-2.89623 -1.4095,-1.197109 -2.11425,-2.838306 -2.11425,-4.923591 0,-2.394217 1.20676,-4.402269 3.62029,-6.024158 2.41353,-1.621889 5.0491,-2.432833 7.90671,-2.432833 1.85359,0 3.44651,0.231698 4.77878,0.695095 1.33227,0.463397 2.65488,0.695095 3.96783,0.695095 0,0.849561 0.0386,2.008053 0.11585,3.475476 0.0772,1.467423 0.15447,2.68384 0.2317,3.64925 0,0.115849 -0.16412,0.222044 -0.49236,0.318585 -0.32824,0.09654 -0.5889,0.144812 -0.78198,0.144812 -0.27031,0 -0.54063,-0.03862 -0.81095,-0.11585 -0.27031,-0.07723 -0.42478,-0.193082 -0.46339,-0.347547 -0.42478,-1.776355 -1.20676,-3.176199 -2.34595,-4.199534 -1.13918,-1.023335 -2.32663,-1.535002 -3.56236,-1.535002 -1.15849,0 -2.04667,0.231699 -2.66453,0.695096 -0.61787,0.463397 -0.9268,1.197108 -0.9268,2.201134 0,1.312958 0.77233,2.336293 2.31699,3.070004 1.54465,0.733711 3.05069,1.409498 4.51812,2.027361 z"
         id="text7"
         aria-label="‘dotes‚" />
      <path
         style="font-weight:bold;font-size:18.0823px;font-family:'Hoefler Text';-inkscape-font-specification:'Hoefler Text';fill:#ffffff;stroke-width:16.4107;stroke-linecap:round"
         d="m 157.73409,41.513312 c 0,2.838144 -0.76555,5.349527 -2.29664,7.53415 -1.53112,2.184632 -3.58505,4.005152 -6.16179,5.461562 -0.11193,0.0373 -0.28931,-0.028 -0.53214,-0.19606 -0.24273,-0.16805 -0.43878,-0.34544 -0.58815,-0.53215 -0.14932,-0.18672 -0.28003,-0.42012 -0.39213,-0.7002 -0.11193,-0.28008 -0.11193,-0.45747 0,-0.53216 1.2697,-0.85891 2.36202,-1.7365 3.27696,-2.632748 0.91491,-0.896256 1.37236,-2.277984 1.37236,-4.145184 0,-0.448129 -0.028,-0.765553 -0.0839,-0.952272 -0.0559,-0.186717 -0.15868,-0.280075 -0.30824,-0.280075 -0.11193,0 -0.23331,0.028 -0.36412,0.08401 -0.13073,0.05601 -0.28944,0.08401 -0.47614,0.08401 -1.08296,0 -2.03522,-0.382776 -2.85679,-1.148327 -0.82156,-0.765552 -1.23234,-1.969897 -1.23234,-3.613034 0,-1.381728 0.47613,-2.642088 1.42838,-3.781079 0.95227,-1.138991 2.17529,-1.708487 3.66904,-1.708487 1.68049,0 3.02488,0.672192 4.03316,2.016576 1.00829,1.344385 1.51243,3.024865 1.51243,5.04144 z"
         id="text7-9"
         aria-label="s‚ a" />
    </g>
  </g>
</svg>
